<svg id="Capa_1" enable-background="new 0 0 507.871 507.871" height="60" viewBox="0 0 507.871 507.871" width="60" xmlns="http://www.w3.org/2000/svg"><g><path d="m361.077 301.85c-.62 7.37.73 14.8 4.09 21.39 15.52 30.41 21.89 64.79 18.36 98.68 21.62.06 42.1 8.31 57.59 22.63 6.68 6.19 2.33 17.37-6.78 17.37h-79.29c-13.98 0-26.17-9.64-29.24-23.28-8.56-37.9-11.14-76.88-7.75-115.42v-7.3c-17.41 15.63-38.32 28.51-60.24 37.04 11.42 21.85 2.24 52.57-26.18 60.38-20.81 5.72-42.24 8.57-63.66 8.56l.08.02h57.83c21.7 0 42.26 8.26 57.79 22.63 6.69 6.19 2.35 17.37-6.77 17.37h-108.85c-48.48 0-95.06-12.29-136.21-35.38-28.79-16.16-29.19-57.32-.81-74.19-6.29-11.97-6.99-26.19-1.81-38.68 56.39-136.06 183.76-235.27 335.94-251.43 11.71-20.8 41.13-21.93 54.44-2.19 12.49.32 24.84 1.19 37.03 2.6 14.97 1.73 27.64 11.84 32.81 26l6.1 16.7c5.14 14.09 1.75 29.88-8.73 40.62l-51.32 52.57c-13.45 13.77-29.73 24.33-47.65 30.97-9.88 3.67-18.09 11.14-22.44 20.74z" fill="#e0ef9b"/><path d="m486.817 145.97-51.32 52.57c-13.45 13.77-29.73 24.33-47.65 30.97-9.98 3.71-18.14 11.23-22.46 20.96l2.63-31.33c.98-11.68-8.24-21.7-19.96-21.7-16.03 0-30 13.43-30 30v88.41c-17.62 15.87-38.03 28.46-60.25 37.09-4.45-8.51-12.04-15.68-22.83-19.61-24.41-8.89-49.94-13.65-75.53-14.32l89.15-52.03c28.61-16.7 54.92-37.07 78.25-60.59l34.76-35.04c13.49-13.61 29.63-24.29 47.42-31.41l86.52-34.59c5.14 14.09 1.75 29.88-8.73 40.62z" fill="#ffda8f"/><path d="m393.057 109.92c-5.522 0-10-4.478-10-10s4.478-10 10-10h5c5.522 0 10 4.478 10 10s-4.478 10-10 10zm100.92 43.04-51.33 52.569c-7.19 7.37-25.138 23.778-51.32 33.36-7.018 2.569-12.809 7.745-16.126 14.234l-4.163 49.561c-.475 5.655.575 11.192 3.036 16.015 14.859 29.114 21.769 61.356 20.191 93.854 19.978 2.299 38.729 10.843 53.639 24.661 13.605 12.609 4.573 34.706-13.566 34.706h-79.291c-18.831.001-34.868-12.778-38.999-31.078-7.66-33.931-10.67-68.623-8.985-103.343-11.37 8.184-23.533 15.16-36.384 20.863 4.637 17.526 1.411 41.784-19.825 56.877 14.658 3.978 28.193 11.502 39.617 21.972 13.2 12.097 4.974 34.71-13.561 34.71h-108.853c-49.579 0-98.372-12.676-141.104-36.658-16.639-9.338-26.714-26.29-26.949-45.346-.199-16.136 6.674-30.946 18.725-41.058-3.801-11.035-4.446-25.228 1.257-39.018 2.682-6.484 5.6-13.021 8.65-19.44 0-.01 0-.01 0-.01 5.698-11.994 23.758-3.414 18.06 8.58-2.906 6.117-5.66 12.354-8.23 18.53-3.087 7.42-3.087 15.097-2.019 20.374 28.921-15.296 72.803-30.374 120.354-28.895l86.756-50.634c27.85-16.255 53.484-36.104 76.191-58.998l34.756-35.041c14.541-14.66 31.636-25.981 50.808-33.647l77.511-30.993-2.766-7.585c-3.87-10.58-13.51-18.23-24.57-19.5-11.939-1.381-24.1-2.23-36.13-2.53-3.23-.08-6.269-1.711-8.04-4.41-8.26-12.591-28.776-13.881-37.44 1.51-1.584 2.814-4.449 4.7-7.659 5.04-107.16 11.38-206.864 66.852-273.47 152.25-8.198 10.511-23.968-1.788-15.77-12.3 78.206-100.271 189.822-149.155 282.38-159.31 16.216-21.846 47.958-22.233 65.27-2.631 11.061.41 22.238 1.111 33.16 2.511 26.819 3.436 37.88 23.819 41.051 32.51l6.1 16.7c6.634 18.869 1.602 37.836-10.962 51.038zm-262.425 189.769c-25.593-9.11-52.23-13.946-78.695-13.946-40.583 0-80.917 10.705-116.71 32.164-22.122 13.263-21.348 44.618.595 56.873 39.795 22.226 85.157 34.1 131.315 34.1h108.853c-.002-.003-.001-.006 0-.009-.006-.006-.013-.013-.02-.019-13.924-12.88-32.037-19.973-51.003-19.973h-55.447c-52.286 0-91.191-14.142-119.217-29.039-4.876-2.593-6.729-8.647-4.136-13.523 2.592-4.879 8.647-6.73 13.524-4.137 33.088 17.589 69.447 26.619 106.195 26.776 23.735 0 44.104-2.825 62.175-8.297 31.237-9.457 30.657-50.973 2.571-60.97zm30.057-2.225c16.881-7.378 32.462-17.179 46.448-29.227v-74.006c-17 14.295-35.207 27.134-54.418 38.347l-62.195 36.299c35.613 6.551 57.419 12.616 70.165 28.587zm94.65-12.713c-4.157-8.146-5.938-17.406-5.151-26.78l6.946-82.702c.487-4.485-2.707-10.872-9.997-10.872-10.841 0-20 9.159-20 20 0 0-.013 96.364-.038 96.655-3.316 37.701-.78 75.499 7.538 112.346 2.024 8.972 10.221 15.483 19.488 15.482h79.292c-.001-.003 0-.006.001-.009-.005-.005-.011-.011-.017-.016-13.87-12.832-31.92-19.97-50.822-19.97-5.668 0-10.571-4.941-9.922-11.038 3.423-32.126-2.633-64.326-17.318-93.096zm123.398-188.812c5.214-5.33 8.124-12.353 8.239-19.803l-75.158 30.052c-16.616 6.645-31.432 16.455-44.034 29.161l-10.679 10.767c12.387 4.538 22.097 16.667 19.691 34.016 2.128-1.164 4.346-2.178 6.651-3.032 16.49-6.12 31.69-16 43.971-28.58zm-420.482 126.219c5.523 0 10-4.477 10-10s-4.477-10-10-10-10 4.477-10 10c.001 5.523 4.478 10 10 10z"/></g></svg>