<?xml version="1.0" encoding="iso-8859-1"?>
<!-- Generator: Adobe Illustrator 19.0.0, SVG Export Plug-In . SVG Version: 6.00 Build 0)  -->
<svg version="1.1" id="Capa_1" xmlns="http://www.w3.org/2000/svg" xmlns:xlink="http://www.w3.org/1999/xlink" x="0px" y="0px"
	 viewBox="0 0 511.998 511.998" style="enable-background:new 0 0 511.998 511.998;" xml:space="preserve">
<g>
	<path style="fill:#31D1F6;" d="M292.193,104.586c-7.335-4.055-14.509-5.358-22.963-5.27c-15.807,0.164-32.106,0.743-47.047,6.446
		c-6.664,2.544-12.761,5.745-17.344,11.255c-2.202,2.648-5.098,4.186-7.473,6.6c-2.504,2.546-3.807,6.039-5.446,9.146
		c-3.161,5.99-9.582,17.873-5.375,24.57c3.526,5.613,12.65,10.678,19.046,11.224c12.862,1.098,21.985-7.624,33.052-12.946
		c5.078-2.442,9.634-4.534,15.222-5.569c3.526-0.653,14.1-2.304,14.178,3.635c0.034,2.573-1.534,4.573-2.927,6.636
		c-2.698,3.994-6.377,7.757-8.648,11.999c-1.031,1.927-1.345,4.287-2.096,6.318c-1.358,3.67-3.512,7.026-5.11,10.612
		c-3.219,7.223-7.889,14.204-13.012,20.184c-8.883,10.371-27.548,23.079-20.784,39.214c2.117,5.05,5.752,5.935,9.602,8.929
		c4.493,3.493,7.8,8.048,12.767,11.052c4.278,2.587,9.809,4.994,14.597,6.467c5.104,1.57,10.249,2.891,15.143,5.073
		c3.678,1.64,7.891,3.282,11.882,4.055c7.86,1.521,15.903-2.798,22.292-7.041c11.113-7.381,18.911-17.125,27.128-27.425
		c5.952-7.462,9.582-18.604,17.239-24.454c2.796-2.136,4.484-2.473,7.454-1.269c3.768,1.528,7.464,3.386,11.47,4.375
		c6.148,1.517,13.292,1.264,19.588,1.46c8.082,0.251,17.121-0.536,24.992-2.482c12.51-3.093,30.982-11.993,28.958-27.643
		c-0.884-6.829-1.814-12.527-7.093-17.398c-4.916-4.536-9.875-5.163-16.321-3.046c-7.936,2.606-17.086,5.194-25.42,5.72
		c-4.853,0.307-9.631-0.652-14.434-1.133c-3.444-0.345-8.368-1.479-10.338-4.661c-1.368-2.209-0.117-4.822-0.128-7.17
		c-0.011-2.298-0.163-5.182-0.591-7.475c-1.234-6.612-3.794-12.968-3.775-19.798c0.033-11.624,2.878-21.951-4.394-31.917
		c-3.737-5.121-8.273-10.658-12.872-14.923c-4.288-3.977-7.437-5.07-12.995-2.317c-2.04,1.011-4.14,1.994-4.787,4.306
		c-0.68,2.427,1.017,5.905,0.339,8.101c-0.564,1.828-7.464,2.962-9.886,4.176c-1.454,0.729-3.953,2.699-5.574,2.727
		c-2.06,0.035-6.002-3.525-7.82-4.635C299.136,108.25,295.628,106.485,292.193,104.586z"/>
	<path style="fill:#31D1F6;" d="M318.201,72.848c0.478,1.861,1.285,3.715,2.977,4.19c3.487,0.979,5.867-5.963,6.671-8.273
		c1.665-4.787,3.333-7.497,7.212-11.11c5.97-5.562,11.04-12.197,16.655-18.142c5.964-6.314,13.105-12.33,20.635-16.696
		c5.228-3.032,11.236-4.814,16.322-7.951c4.393-2.709,5.051-6.72,0.209-9.304c-6.868-3.666-15.516-3.363-23.148-3.451
		c-9.539-0.109-16.986,0.48-25.673,5.059c-6.383,3.364-12.58,8.286-17.261,13.8c-8.614,10.146-11.653,26.232-7.92,39.006
		c0.978,3.345,2.031,6.494,2.715,9.905C317.759,70.696,317.925,71.773,318.201,72.848z"/>
</g>
<g>
	<path style="fill:#387BD2;" d="M385.164,53.342c8.926-4.053,17.13-9.712,26.285-13.286c3.341-1.304,7.159-1.892,9.484-4.764
		c4.407-5.445-2.892-13.938-7.167-17.195c-4.184-3.188-11.16-6.04-16.178-7.432c-7.027-1.95-11.428,4.395-16.346,8.104
		c-13.952,10.521-29.111,17.914-39.691,32.193c-4.404,5.944-8.774,12.194-13.715,17.776c-4.546,5.136-5.799,8.293-2.017,14.54
		c1.697,2.803,4.304,5.446,7.484,5.899c5.246,0.747,9.466-4.165,12.902-7.373c5.639-5.266,11.613-10.229,17.836-14.785
		C369.107,63.31,376.364,58.621,385.164,53.342z"/>
	<path style="fill:#387BD2;" d="M222.712,107.758c-2.701,3.589-4.653,10.996-1.428,14.602c2.071,2.315,5.883,2.902,6.795,6.103
		c0.768,2.697-1.574,6.108-2.24,8.76c-0.848,3.381-0.687,6.343,1.485,9.165c2.206,2.865,4.906,5.856,7.598,8.288
		c1.785,1.612,2.078,2.077,4.368,1.014c1.622-0.753,3.015-2.463,4.518-3.47c1.266-0.848,3.024-1.408,4.075-2.527
		c2.661-2.836-1.802-7.306-1.151-11.17c0.76-4.512,5.051-9.007,1.742-13.303c-2.612-3.391-4.984-6.638-5.595-11.09
		c-0.567-4.127,2.496-7.4,2.355-11.374c-3.294-0.446-6.861,0.977-10.066,1.585c-4.347,0.825-8.252,2.338-11.909,4.636
		C223.206,108.66,223.2,108.342,222.712,107.758z"/>
	<path style="fill:#387BD2;" d="M334.464,91.831c-4.612,2.869-10.411,5.378-10.618,11.679c-0.141,4.298,1.808,5.37,5.58,6.105
		c6.007,1.171,10.9,3.888,15.184,8.495c3.749,4.032,5.985,9.498,8.324,14.48c3.027,6.451,6.366,12.708,8.28,19.582
		c0.599,2.153,1.274,4.665,2.375,6.61c2.099,3.707,3.553,0.215,4.839-2.852c3.573-8.522,1.124-19.304-2.968-27.281
		c-2.189-4.267-5.441-8.021-7.711-12.265c-2.096-3.92-4.604-8.054-7.566-11.428C347.245,101.61,340.381,93.777,334.464,91.831z"/>
	<path style="fill:#387BD2;" d="M245.275,193.364c4.931-3.777,12.06-5.452,17.818-7.565c1.318-0.484,4.172-1.862,5.576-1.379
		c1.443,0.497,2.22,3.588,2.641,4.963c1.99,6.496-2.771,18.612,7.022,19.698c4.057,0.45,8.269-3.262,12.432-2.385
		c3.521,0.741,7.078,4.315,8.306,7.518c1.282,3.344,1.115,9.196,3.532,11.924c1.53,1.727,4.175,1.285,6.174,0.977
		c2.754-0.425,5.179-0.351,7.954-0.493c3.127-0.16,3.552,0.651,5.748,2.632c1.646,1.485,3.218,2.742,4.228,4.906
		c1.779,3.816,2.413,8.6,2.58,12.781c0.222,5.542-2.96,9.716-6.969,13.376c-1.517,1.385-4.141,3.583-6.145,3.895
		c0.081-5.278-1.503-10.772-4.157-15.316c-0.785-1.345-2.153-3.648-3.672-4.176c-2.093-0.728-5.78,0.528-7.707,1.104
		c-3.654,1.093-10.256,6.88-13.166,1.497c-2.686-4.966,0.996-10.972-0.579-16.237c-3.035-10.147-17.18,4.426-22.863-1.829
		c-6.147-6.765,3.524-16.455-3.913-23.05c-3.244-2.877-11.254,1.595-14.002,3.625c-3.251,2.402-6.134,4.327-7.687-1.043
		c-1.106-3.825,2.769-8.278,4.148-11.56c0.54-1.285,0.717-2.729,1.395-3.954C244.574,192.181,245.629,191.718,245.275,193.364z"/>
	<path style="fill:#387BD2;" d="M390.008,185.798c0.23,3.57,0.94,9.69-2.282,12.445c-2.756,2.357-6.374,3.217-8.974,5.953
		c-4.054,4.266,4.371,9.71,1.754,15.094c-1.921,3.95-6.888,4.268-9.371,7.884c-3.486,5.075,12.167,4.155,14.935,4.219
		c2.009,0.046,5.461-0.568,7.079-1.842c2.028-1.596,1.969-4.485,2.634-6.673c0.794-2.613,0.813-4.437,0.343-7.268
		c-0.315-1.897-1.485-4.66-1.338-6.519c0.257-3.252,6.098-5.047,8.255-7.061c2.783-2.599,3.27-4.871,2.689-8.487
		c-0.404-2.512-0.951-5.096-2.26-7.341C400.474,181.061,394.984,182.772,390.008,185.798z"/>
</g>
<path style="fill:#FFDBC4;" d="M427.834,180.224c-0.03-2.292,0.733-4.665,0.973-6.952c0.205-1.958,0.064-4.131,0.766-5.998
	c0.827-2.201,2.83-4.45,5.08-5.321c2.08-0.805,3.089,0.487,4.927,1.424c1.945,0.992,2.445,2.846,4.181,3.867
	c2.958,1.74,7.69-2.663,10.303-3.941c2.562-1.253,6.359-1.22,8.297,1.194c2.357,2.937,1.922,6.265,2.105,9.819
	c0.246,4.773,4.515,6.838,4.788,11.683c0.309,5.483-1.238,11.433-4.749,15.702c-3.626,4.409-7.85,10.789-14.173,10.973
	c-2.02,0.059-4.013,0.099-6.023,0.201c-1.241,0.063-3.488,0.731-4.639,0.365c-4.058-1.292-2.77-5.439-2.673-8.633
	c0.166-5.512-0.223-10.924-2.583-15.977C432.524,184.586,428.554,183.104,427.834,180.224z"/>
<path style="fill:#5B5752;" d="M371.427,61.979c1.459-0.842,5.926-3.609,7.638-2.564c2.294,1.4,1.984,5.352,1.984,7.597
	c0,1.327,0.123,2.493-0.661,3.544c-1.14,1.526-3.428,2.611-5.046,3.523c-3.466,1.953-6.491,2.827-7.631,6.93
	c-0.509,1.833-0.236,3.714-0.463,5.591c-0.282,2.325-0.892,4.583-1.856,6.719c-1.949,4.32-5.41,5.866-9.892,6.541
	c-2.557,0.385-4.95,1.577-7.582,0.947c-1.635-0.391-3.401-1.692-4.731-2.738c-0.982-0.772-1.491-1.786-2.486-2.519
	c-0.679-0.5-2.183-0.86-2.531-1.583c-0.395-0.819,0.505-2.421,0.91-3.05c1.434-2.231,3.676-4.616,5.664-6.355
	c1.17-1.023,2.493-1.691,3.558-2.824c3.549-3.776,6.558-7.937,10.555-11.284C362.739,67.204,367.05,64.504,371.427,61.979z"/>
<path style="fill:#FFDBC4;" d="M415.424,39.937c-7.681,5.001-15.872,8.949-24.288,12.598c-2.267,0.983-4.647,1.749-6.879,2.797
	c-0.941,0.442-2.652,1.078-3.412,1.791c-1.409,1.32-0.768,2.668-0.228,4.285c0.66,1.976,1.147,4.088,1.228,6.164
	c0.063,1.635,0.208,3.295-0.797,4.616c-0.889,1.167-2.197,1.505-3.45,2.117c-1.429,0.698-2.752,1.634-4.109,2.461
	c-2.242,1.366-4.392,3.415-5.264,5.968c-0.471,1.378-0.398,2.915-0.614,4.349c-0.259,1.719-0.773,3.427-1.365,5.059
	c-0.966,2.66-2.993,4.099-5.442,5.331c-1.706,0.859-3.255,1.944-5.083,2.557c-1.183,0.397-3.05,0.523-4.005,1.419
	c-2.649,2.486,1.354,6.365,2.923,8.048c3.899,4.183,8.197,7.148,13.228,9.805c6.29,3.322,13.977,2.969,20.786,1.726
	c2.908-0.531,5.901-0.565,8.831-1.119c3.583-0.677,6.921-2.132,10.344-3.304c6.646-2.276,13.721-4.303,17.937-10.493
	c2.183-3.205,2.233-6.39,3.359-9.897c0.937-2.92,1.772-5.893,2.746-8.807c0.78-2.335,1.441-4.195,3.634-5.432
	c2.204-1.242,6.216-3.74,6.75-6.438c0.569-2.879-1.911-6.143-4.266-7.474c-2.093-1.183-5.154-2.113-6.646-4.13
	c-1.604-2.169-0.788-5.946-1.445-8.546c-0.856-3.386-2.573-6.42-4.087-9.55c-1.005-2.077-2.098-4.487-3.517-6.3
	c-0.435-0.556-0.971-1.209-1.637-1.441C418.734,37.423,417.407,39.476,415.424,39.937z"/>
<path style="fill:#387BD2;" d="M219.413,256.888c-1.163,1.245-1.723,3.814-2.724,6.157c-0.927,2.171-2.391,4.111-3.616,6.12
	c-2.149,3.526-4.87,6.671-7.256,9.994c-5.493,7.652-12.665,16.003-20.663,21.114c-12.651,8.085-27.845,2.837-39.656-3.901
	c-3.6-2.054-6.072-0.773-9.536,1.02c-3.385,1.751-7.391,3.836-9.892,6.815c-3.896,4.64-5.738,12.32-6.914,18.17
	c-1.245,6.195-0.411,11.37,1.09,17.445c3.102,12.555,14.138,21.432,26.993,22.17c7.374,0.423,14.769,0.945,22.164,0.795
	c6.942-0.141,14.611-0.073,21.417-1.4c6.912-1.348,14.26-3.002,20.916-5.32c6.961-2.424,14.455-3.842,20.907-7.539
	c3.9-2.235,7.61-5.609,10.443-9.079c2.837-3.475,6.247-6.558,8.994-10.072c1.712-2.19,3.132-4.691,4.787-6.943
	c2.711-3.688,3.802-5.398,8.574-6.317c3.205-0.617,5.722-0.067,8.714,1.156c7.311,2.989,15.345,6.418,20.243,12.901
	c4.306,5.699,7.249,12.63,7.598,19.784c0.332,6.812-2.405,13.77-4.721,20.045c-2.564,6.949-3.919,14.743-5.116,22.026
	c-0.555,3.378-1.428,6.721-1.295,10.178c0.102,2.655,0.953,5.228,1.589,7.807c1.055,4.276,3.593,9.788,7.837,11.76
	c3.993,1.855,7.917,2.535,11.673,5.236c2.605,1.873,6.081,3.15,9.229,3.819c6.927,1.471,13.584-1.889,20.304-2.563
	c5.106-0.513,10.241-1.907,14.17-5.555c5.366-4.984,7.889-13.077,9.854-19.959c2.374-8.316,3.845-16.773,5.575-25.232
	c1.982-9.69,4.204-20.087,4.18-29.993c-0.017-7.115-1.046-14.263-3.992-20.777c-3.139-6.939-6.901-12.554-11.534-18.597
	c-2.484-3.24-5.443-6.104-8.368-8.921c-2.747-2.645-5.005-5.69-7.71-8.377c-2.361-2.345-4.897-4.519-7.396-6.709
	c-3.377-2.958-7.358-4.414-10.451-7.593c-2.874-2.954-6.58-6.599-11.078-6.108c-4.428,0.483-6.648,5.319-8.477,8.756
	c-2.034,3.822-8.004,5.687-12.216,6.202c-3.237,0.396-7.074,0.74-10.311,0.304c-3.308-0.445-6.436-2.076-9.523-3.199
	c-4.052-1.473-7.939-3.295-12.03-4.631c-4.335-1.416-8.667-2.735-12.739-4.832c-6.346-3.269-11.988-7.414-18.165-10.91
	c-2.527-1.43-4.715-3.009-7.062-4.676C221.786,255.729,220.388,255.843,219.413,256.888z"/>
<g>
	<path style="fill:#76746E;" d="M110.695,283.349c-17.681,3.011-23.969,21.984-30.106,36.631c-3.164,7.551-5.29,14.931-7.278,22.85
		c-1.293,5.152-1.682,10.432,1.449,14.974c4.031,5.846,9.488,5.191,15.544,2.834c3.781-1.472,8.335-3.86,10.798-7.211
		c1.675-2.279,3.085-4.724,5.079-6.79c3.571-3.698,13.144-2.952,12.183-9.697c-0.722-5.064-2.322-11.131-1.856-16.229
		c0.507-5.549,2.608-12.62,5.916-17.157c1.451-1.99,3.643-3.454,5.589-4.928c1.183-0.897,3.5-2.034,4.117-3.437
		c0.866-1.97-0.951-3.36-2.28-4.318c-2.674-1.928-4.688-4.758-7.715-6.286c-1.854-0.936-3.8-1.982-5.901-2.046
		C114.163,282.475,112.307,283.184,110.695,283.349z"/>
	<path style="fill:#76746E;" d="M289.67,419.124c-2.282,3.686-3.805,7.996-5.379,12.027c-1.439,3.686-2.537,7.803-2.584,11.807
		c-0.071,5.979,2.105,12.895,7.168,16.424c2.964,2.066,5.761,4.336,9.008,5.935c3.687,1.815,7.701,2.876,11.508,4.418
		c7.719,3.128,16.331,5.362,24.576,6.725c7.721,1.276,15.275,1.357,22.973,0.248c6.337-0.913,13.682-2.428,16.003-9.491
		c1.15-3.5,1.11-6.349-1.681-8.918c-2.408-2.216-5.146-4.145-7.83-6.003c-2.96-2.049-6.309-3.517-9.358-5.445
		c-2.974-1.88-4.091-3.422-5.27-6.768c-0.56-1.588-0.916-4.448-1.847-5.794c-0.954-1.381-2.015-1.087-3.848-1.254
		c-7.522-0.688-14.911,1.098-22.379-0.971c-5.934-1.644-11.884-3.273-17.039-6.779c-2.157-1.467-4.373-2.79-6.61-4.127
		C295.85,420.423,294.01,419.968,289.67,419.124z"/>
</g>
<g>
	<path style="fill:#F4F4EB;" d="M276.531,479.446c-4.947,1.49-3.822,5.507-1.294,8.76c3.509,4.516,9.358,7.006,14.769,8.417
		c2.391,0.623,4.611,0.23,6.95,1.186c2.999,1.226,5.853,2.84,8.776,4.232c5.085,2.42,11.787,3.927,17.3,5.01
		c6.057,1.189,12.023,2.166,18.201,2.467c5.75,0.28,11.706-0.706,17.409-1.201c3.349-0.291,7.237-1.458,9.221-4.233
		c1.792-2.506,2.893-4.985,0.497-7.467c-3.699-3.832-14.43-0.505-16.14-6.156c-1.327-4.387,3.474-8.406-1.836-11.368
		c-2.23-1.244-8.125,0.447-9.8,2.742c-1.915,2.623-0.057,6.913-3.044,8.356c-2.387,1.153-5.873,0.845-8.404,0.404
		c-2.565-0.447-4.954-1.523-7.493-2.05c-1.811-0.376-3.403,0.06-5.178-0.083c-3.961-0.319-7.876-4.465-8.962-8.119
		c-1.009-3.4,2.859-5.153,1.884-8.264c-0.675-2.155-4.257-2.412-5.992-3.384c-1.429-0.8-4.605-3.031-6.375-1.352
		c-1.123,1.065-0.227,4.954-0.822,6.488c-0.833,2.149-3.016,3.891-5.254,4.329c-1.908,0.374-4.669,0.376-6.538,0.097
		c-1.139-0.17-2.208-0.834-3.405-0.811C279.162,477.484,278.073,478.763,276.531,479.446z"/>
	<path style="fill:#F4F4EB;" d="M85.411,303.257c-2.082-1.099-5.03-2.009-7.361-2.549c-9.715-2.25-14.978,10.037-15.688,17.53
		c-0.315,3.322-0.368,5.702,1.354,8.61c0.95,1.605,2.167,2.329,3.446,3.548c1.064,1.016,1.825,2.376,3.008,3.266
		c1.147,0.864,3.165,0.927,3.687,2.352c0.573,1.565-0.847,7.102-2.028,8.213c-2.132,2.007-3.985-0.224-6.071-0.378
		c-3.183-0.236-5.162,1.637-7.207,3.788c-1.633,1.719-3.217,3.478-4.897,5.15c-1.428,1.421-3.263,4.12-5.132,4.887
		c-1.65,0.677-4.573-0.806-5.624-2.366c-2.132-3.163-1.186-8.395-0.085-11.655c3.429-10.15,6.398-20.462,8.765-30.891
		c1.102-4.855,2.674-9.165,5.4-13.388c2.443-3.784,5.103-7.246,8.632-10.05c3.313-2.633,4.893-6.382,7.843-9.308
		c2.233-2.214,11.508-8.593,11.187-1.447c-0.102,2.274-0.895,4.855-0.422,7.168c0.41,2.002,2.645,3.465,4.364,4.524
		c2.924,1.8,3.344,2.639,2.122,6.014C89.755,298.897,87.87,301.311,85.411,303.257z"/>
</g>
<path style="fill:#FFDBC4;" d="M188.138,151.755c-2.66-2.46-0.396-7.007-5.094-6.771c-3.589,0.181-6.069,1.229-8.934,3.385
	c-4.471,3.363-12.229,10.414-11.056,16.68c1.38,7.371,8.225,10.698,13.221,15.258c2.04,1.862,3.16,5.572,5.527,6.984
	c3.748,2.236,11.831-0.58,14.47-3.533c2.876-3.218,3.272-9.85,1.835-13.787c-1.38-3.78-4.011-7.114-6.093-10.512
	C190.72,157.347,189.438,152.346,188.138,151.755z"/>
<path d="M472.117,183.242c-0.318-1.074-1.103-1.868-1.613-2.814c-1.235-2.287-1.511-3.257-1.483-5.957
	c0.028-2.73,0.526-5.431-0.271-8.141c-1.431-4.87-5.906-6.824-10.737-5.942c-3.04,0.554-5.973,4.343-8.405,4.66
	c-2.982,0.389-1.959-0.51-4.646-1.915c-4.736-2.475-8.01-5.267-13.157-1.433c-3.895,2.9-5.234,7.288-4.911,11.763
	c-5.43-1.536-11.668,0.413-17.774,2.773c-14.68,5.673-28.109,6.434-42.92,0.855c0.093-0.197,0.169-0.402,0.219-0.614
	c0.808-3.475,0.791-7.26,0.342-11.125c5.711-5.958,8.317-18.005,7.418-25.468c-0.634-5.268-2.516-10.476-5.11-15.4
	c11.764,3.225,25.953,1.999,36.827-1.289c15.725-4.754,27.163-14.041,29.609-30.931c0.468-3.23,0.167-3.788,2.454-6.238
	c1.617-1.732,2.769-1.873,4.343-3.221c1.605-1.376,3.145-2.933,3.748-5.049c1.359-4.769-2.299-10.043-6.387-12.156
	c-0.813-0.42-4.036-0.829-4.7-1.509c-1.616-1.655-1.206-4.864-1.462-6.983c-0.499-4.114-1.37-8.968-3.029-12.787
	c-1.741-4.008-4.503-5.594-7.331-7.748c3.933-5.779,0.153-13.328-4.032-18.141c-6.447-7.414-15.438-10.777-24.587-13.627
	c-11.283-3.514-23.182-5.488-35.024-4.588c-10.419,0.792-21.906,3.981-30.402,10.312c-7.612,5.673-12.85,15.977-15.438,24.932
	c-4.76,16.476-1.635,44.953,15.042,54.604c-7.019,1.951-7.007,10.399-4.979,16.732c-1.55,0.174-3.087,0.5-4.584,1.027
	c-3.197,1.125-6.623,3.129-9.735,5.136c-17.143-17.654-44.53-19.298-67.503-14.578c-20.574,4.227-45.693,14.741-55.844,34.653
	c-1.611,3.161-2.466,6.868-2.653,10.761c-6.175-0.688-15.043,6.613-17.876,10.808c-5.465,8.092-2.997,20.788,4.175,27.029
	c1.409,1.227,3.634,1.885,4.737,3.295c0.965,1.233,0.886,3.378,1.88,4.767c2.908,4.061,8.284,5.238,12.896,4.045
	c6.701-1.734,16.447-9.71,14.367-17.376c1.044,0.23,2.119,0.386,3.23,0.443c11.932,0.611,18.391-7.855,27.539-13.566
	c8.026-5.011,21.088-12.304,31.213-9.931c-0.939,1.128-1.885,2.252-2.801,3.39c-7.855,9.76-14.765,19.469-20.421,30.739
	c-5.867,11.691-11.425,22.692-20.086,32.658c-7.331,8.436-14.476,16.723-9.912,28.542c0.769,1.991,1.829,3.851,3.07,5.613
	c-0.067,0.121-0.141,0.23-0.198,0.37c-1.811,4.437-5.468,8.313-7.938,12.42c-3.351,5.573-7.21,11.507-11.655,16.252
	c-8.432,9-21.697,17.11-34.37,13.842c-10.475-2.701-17.638-11.282-28.768-6.12c-4.204-5.556-7.595-11.26-15.316-12.889
	c-6.964-1.47-14.471,1.407-19.625,6.066c-2.053,1.856-3.807,4.076-5.395,6.459c-2.244-1.883-5.452-4.237-5.557-6.76
	c-0.134-3.221,2.867-5.604,1.538-9.127c-1.577-4.181-6.203-4.006-9.856-2.357c-5.612,2.534-10.737,9.614-14.393,14.345
	c-4.835,6.257-9.577,12.968-13.082,20.06c-3.857,7.803-5.975,15.707-7.706,24.198c-1.402,6.876-6.042,17.227-2.817,24.103
	c1.705,3.636,5.955,6.26,9.975,4.774c8.936-3.304,8.101-15.198,19.403-13.817c-1.111,9.875,1.705,19.489,14.242,19.671
	c5.708,0.083,11.888-1.835,16.38-5.377c3.103-2.446,4.736-5.792,7.412-8.622c2.655-2.808,6-3.191,8.897-5.046
	c4.987,7.098,13.006,12.024,20.891,15.227c11.171,4.538,23.928,6.05,35.876,6.891c12.071,0.85,24.017,0.85,35.727-2.581
	c13.024-3.817,24.082-10.344,34.363-19.124c6.988-5.967,17.196-16.642,19.052-26.44c4.466,1.534,8.972,2.942,13.248,5.022
	c7.282,3.542,18.112,8.649,20.654,17.094c2.263,7.518-0.484,17.166-2.464,24.445c-2.583,9.494-5.246,18.965-7.609,28.518
	c-1.762,7.121-4.143,15.121-2.061,22.432c0.273,0.961,0.637,1.841,1.051,2.676c-7.345,10.899-13.725,27.387-2.849,37.45
	c3.779,3.496,8.167,6.541,12.897,9.204c-0.236,1.956-0.558,4.481-1.5,5.572c-2.495,2.89-7.121,1.757-10.319,1.78
	c-3.325,0.025-8.008-0.053-11.136,1.387c-4.24,1.952-3.839,5.766-1.504,9.217c4.201,6.21,12.645,10.421,19.302,13.223
	c9.697,4.082,20.789,7.572,31.136,9.464c13.74,2.513,35.499,8.039,47.754-1.727c3.572-2.847,6.534-7.976,1.882-11.358
	c-2.801-2.037-7.169-1.53-10.348-2.327c-3.158-0.791-4.356-1.05-5.129-4.136c-0.529-2.113,0.218-4.288,0.552-6.441
	c9.319-0.902,17.977-4.33,21.502-13.096c2.428-6.037,0.766-13.392-4.479-17.468c-3.472-2.697-8.456-4.165-12.567-5.667
	c-6.845-2.502-7.866-4.928-10.071-11.037c11.698-6.655,18.273-22.821,23.349-33.97c7.061-15.509,10.933-32.618,9.083-49.688
	c-2.075-19.143-9.27-35.125-21.565-49.797c-5.826-6.952-11.74-12.83-18.943-18.36c-3.981-3.056-7.685-6.484-11.758-9.418
	c-1.369-0.986-7.282-3.598-8.059-4.67c-0.055-0.075-0.119-0.128-0.176-0.199c4.099-4.77,7.913-9.777,11.668-14.341
	c4.184-5.086,7.96-10.398,11.232-16.132c1.678-2.941,3.486-6.124,4.636-9.315c0.123-0.341,0.208-0.718,0.285-1.104
	c10.277,4.824,21.714,7.584,33.309,8.747c19.739,1.981,43.497-2.947,53.832-20.914c5.461,2.194,9.804,1.707,15.715-0.932
	c6.683-2.984,12.596-6.107,16.577-12.545C472.559,197.518,473.719,188.655,472.117,183.242z M421.124,38.942
	c2.567,4.281,5.047,7.315,5.886,13.361c0.594,4.28-0.871,11.367,1.98,15.081c3.076,4.008,13.062,2.639,6.653,11.438
	c-0.932,1.28-3.23,1.916-4.314,3.376c-1.333,1.796-1.706,3.712-2.121,5.868c-0.741,3.852-1.297,7.456-2.46,10.815
	c-3.806,0.418-7.336,2.192-11.505,0.976c-3.771-1.101-6.326-3.851-8.798-6.694c0.199-0.254,0.369-0.526,0.498-0.824
	c1.848-1.103,0.655-4.285-1.777-3.87c-3.162,0.541-9.48,3.902-9.043,7.91c0.094,0.867,1.342,1.562,1.93,0.805
	c0.259,0.145,0.561,0.218,0.903,0.177c1.408-0.166,2.651-0.927,3.88-1.652c1.794,3.799,5.133,6.61,9.181,8.13
	c2.431,0.913,5.008,1.277,7.589,1.028c1.964-0.189,3.536-0.797,5.068-1.499c-0.899,1.483-2.015,2.91-3.44,4.281
	c-5.488,5.281-12.688,7.515-19.863,9.449c-7.31,1.97-15.886,2.678-23.413,1.322c-4.01-0.722-8.95-0.769-12.703-2.522
	c-4.152-1.938-6.051-5.806-9.085-9.005c-0.94-0.991-1.99-2.136-3.132-3.355c3.543-0.639,7.283-2.567,9.993-3.819
	c2.657-1.227,5.36-2.593,6.679-5.377c1.492-3.151-0.019-6.26,0.425-9.463c1.167-8.435,11.642-6.143,14.033-13.206
	c1.638-4.839-0.717-8.01-2.975-11.503c4.187-2.446,8.477-4.733,12.92-6.803C402.568,49.426,414.237,45.854,421.124,38.942z
	 M364.591,88.425c-0.893,5.39-6.534,7.706-11.494,8.338c-1.92,0.244-12.584-3.766-12.262-4.028c1.866-1.524,3.398-3.78,4.933-5.464
	c4.471-4.91,9.13-9.445,14.532-13.327c6.082-4.369,12.216-8.545,18.563-12.375c0.299,0.767,0.564,1.548,0.82,2.663
	c1.188,5.164-1.613,6.351-5.678,8.427c-2.946,1.504-5.842,2.463-7.877,5.263C363.59,81.413,365.232,84.561,364.591,88.425z
	 M330.377,19.869c7.657-8.725,22.117-11.784,33.205-11.948c8.544-0.126,16.974,1.22,25.173,3.478
	c-5.548,1.661-11.267,5.543-15.364,8.368c-7.066,4.873-14.071,10.383-20.409,16.168c-6.72,6.133-13.065,13.206-18.891,20.189
	c-3.668,4.396-8.118,9.589-10.855,15.131C315.972,55.155,319.981,31.715,330.377,19.869z M325.601,75.636
	c3.533-6.907,9.734-13.598,14.546-18.977c4.931-5.511,10.083-11.11,15.499-16.148c11.934-11.099,24.939-19.102,39.823-25.403
	c0.688-0.291,1.132-0.758,1.387-1.279c0.565,0.195,1.135,0.376,1.698,0.578c5.289,1.9,10.141,4.268,13.97,8.505
	c6.114,6.765,4.016,10.115-3.178,14.199c-9.416,5.346-19.467,9.622-28.776,15.178c-9.385,5.602-18.729,12.342-27.076,19.406
	c-3.477,2.943-6.315,6.466-9.008,10.127c-3.069,4.173-7.584,4.446-11.907,1.29C331.576,82.381,324.934,76.952,325.601,75.636z
	 M328.812,100.799c1.087-2.705,4.399-4.616,6.921-4.184c2.823,0.483,5.222,3.242,7.161,5.038
	c6.22,5.764,11.781,11.165,15.952,18.582c5.249,9.332,9.394,16.663,7.051,27.745c-0.364,1.719-0.93,3.555-1.514,5.441
	c-0.842-3.295-1.729-6.479-2.423-9.401c-2.58-10.867-8.34-21.955-16.694-29.617c-4.471-4.101-10.502-7.017-16.671-7.627
	C328.517,104.618,328.217,102.28,328.812,100.799z M189.852,184.606c-4.768,1.73-5.901-1.624-8.919-4.41
	c-1.609-1.486-2.99-2.232-4.981-3.325c-9.634-5.289-11.305-16.944-2.256-23.755c1.972-1.484,6.445-5.095,9.705-6.139
	c0.456,10.408,5.439,21.45,13.739,26.713C194.551,177.43,194.686,182.852,189.852,184.606z M230.491,156.634
	c-7.885,4.495-18.002,15.749-27.867,9.585c-8.863-5.538-12.826-19.993-8.716-29.259c4.524-10.199,13.144-17.542,23.101-22.781
	c-0.256,0.89-0.365,1.851-0.274,2.876c0.278,3.122,2.823,6.727,4.777,9.017c1.002,1.175,2.488,2.042,3.408,3.211
	c2.302,2.928,1.265,3.137,0.422,5.896c-1.694,5.546-2.026,10.109,1.842,15.06c1.331,1.704,3.434,3.868,5.714,5.03
	C232.071,155.734,231.266,156.192,230.491,156.634z M243.627,139.94c0.306,2.984,1.168,6.348,3.128,8.513
	c-3.627,1.415-7.149,3.161-10.403,4.91c-1.146-0.785-2.423-2.45-3.103-3.139c-2.496-2.53-4.958-5.067-4.842-9.095
	c0.109-3.802,4.035-6.422,3.438-10.206c-0.418-2.648-2.577-3.822-4.364-5.527c-4.792-4.574-6.651-8.65-1.733-14.701
	c0.164-0.201,0.256-0.41,0.318-0.618c5.589-2.152,11.314-3.741,16.801-4.917c-1.325,2.089-2.108,4.538-2.301,7.16
	c-0.372,5.06,2.512,7.692,5.038,11.616C249.572,130.095,242.971,133.536,243.627,139.94z M251.406,146.863
	c-2.731-4.664-2.524-8.084-0.599-13.475c0.807-2.26,1.574-3.436,1.275-5.897c-0.263-2.167-1.069-3.666-2.335-5.347
	c-3.879-5.149-9.652-11.557-3.325-17.698c11.031-2.021,23.201-2.533,34.102,0.113c4.824,1.171,9.558,2.879,14.207,4.61
	c4.099,1.527,7.887,4.268,12.033,5.534c-0.239,0.161-0.486,0.326-0.718,0.483c-1.706,1.152-3.122,2.56-4.462,4.034
	c-11.421,8.058-21.722,17.796-31.006,28.255C264.703,144.514,257.999,144.939,251.406,146.863z M233.19,223.443
	c2.12-2.699,3.981-5.448,5.692-8.293c6.545-3.435,15.759-11.068,20.055-5.074c4.497,6.276-3.341,25.998,10.739,23.065
	c3.128-0.652,6.061-2.325,9.061-3.361c2.839-0.98,6.331-1.714,7.771,2.084c0.284,0.75-0.046,2.889-0.113,3.727
	c-0.35,4.36-3.006,11.543,1.455,14.979c2.563,1.974,6.28,0.964,9.033-0.035c1.585-0.575,3.094-1.812,4.69-2.306
	c2.606-0.807,7.45-1.793,9.895,0.404c1.955,1.757,1.547,7.983,2.197,11.619c-0.128,0.649,0.041,1.365,0.449,1.944
	c-4.781,5.493-9.969,10.519-15.73,13.994c-12.39,7.473-31.085,1.537-43.303-3.989c-10.901-4.93-33.994-15.051-34.392-29.27
	C220.476,235.307,228.846,228.974,233.19,223.443z M71.564,337.343c-0.467,1.455-0.877,2.973-1.211,4.517
	c-9.873-7.288-14.931,10.922-21.345,12.047c-9.609,1.684-1.815-16.35-1.026-20.022c1.74-8.116,3.477-15.531,7.136-23.079
	c2.859-5.898,6.698-11.172,10.472-16.509c2.252-3.183,4.596-6.156,7.251-9.004c1.13-1.211,4.268-5.788,5.814-6.127
	c5.945-1.303,1.999,3.3,1.921,5.375c-0.069,1.825,0.089,2.698,1.038,4.303c1.448,2.451,5.004,4.687,8.032,5.904
	c-1.304,2.353-2.484,4.781-3.622,7.17c-3.3-3.636-9.681-3.069-13.811-1.396c-5.301,2.148-8.975,6.538-10.549,12.02
	c-1.848,6.441-1.464,12.989,2.52,18.52c1.752,2.433,4.79,5.034,7.909,4.714C71.922,336.298,71.731,336.822,71.564,337.343z
	 M72.867,333.488c-6.01-4.789-8.862-10.761-6.752-18.797c1.871-7.127,9.978-13.074,17.013-8.665
	c0.264,0.165,0.522,0.264,0.776,0.328c-0.078,0.162-0.157,0.331-0.235,0.492C79.511,315.362,75.921,324.446,72.867,333.488z
	 M115.093,315.222c-2.293,7.227-4.137,16.4-2.057,24.107c-3.61,1.37-6.797,2.138-9.942,5.073
	c-3.842,3.585-5.731,8.779-10.508,11.335c-3.612,1.933-10.072,3.836-13.814,1.178c-6.49-4.608-0.899-17.435,1.233-23.201
	c5.116-13.834,10.328-30.582,20.144-42.003c7.109-8.272,16.668-8.016,24.703-1.518c1.237,1,2.428,2.197,3.725,3.143
	C121.709,298.464,117.595,307.334,115.093,315.222z M144.084,350.42c0.06,1.281,0.026,2.947,0.091,4.697
	c-0.675-0.214-1.352-0.422-2.017-0.654c-5.889-2.053-12.924-5.68-17.135-10.411c-5.593-6.284-5.201-14.076-3.225-21.794
	c1.691-6.604,4.723-13.857,9.679-18.727c6.751-6.635,12.905-2.2,20.135,1.018c3.309,1.473,6.681,2.415,10.068,2.857
	c-0.847,1.043-1.636,2.039-2.35,2.887c-4.634,5.505-8.276,11.286-11.038,17.939C145.112,335.894,143.695,342.097,144.084,350.42z
	 M167.581,359.365c-6.24-0.49-12.483-1.377-18.455-2.855c-0.759-4.5-0.451-11.797-0.294-14.017c0.4-5.651,2.859-11.389,5.13-16.509
	c2.48-5.593,5.984-10.309,9.779-15.082c0.681-0.857,1.479-1.995,2.357-3.201c4.924-0.002,9.838-1.076,14.597-3.209
	c-5.105,7.923-9.789,15.702-12.163,25.562C166.522,338.404,164.161,350.506,167.581,359.365z M252.487,318.822
	c-0.207,2.137-3.39,5.695-4.544,7.43c-2.308,3.47-4.632,6.88-7.559,9.874c-4.778,4.887-10.425,9.366-16.245,12.91
	c-11.917,7.256-25.854,10.736-39.721,10.861c-3.652,0.033-7.404-0.019-11.189-0.184c-2.602-11.24-2.861-20.95,0.035-32.592
	c2.305-9.27,7.025-16.934,11.756-24.816c8.625-4.848,15.743-11.77,21.157-20.108c2.691-4.145,5.973-8.823,8.641-13.706
	c-0.346,2.557-0.469,5.156-0.173,7.848c0.717,6.521,3.785,12.699,7.695,17.879c7.711,10.219,19.279,17.221,30.706,22.669
	C252.763,317.456,252.558,318.092,252.487,318.822z M365.809,500.277c2.049,9.091-44.182,2.359-49.009,1.095
	c-8.265-2.165-16.954-4.473-24.855-7.727c-3.914-1.612-23.507-12.139-11.056-12.639c5.341-0.214,12.089,1.663,16.021-2.995
	c2.156-2.554,2.747-5.498,2.318-8.442c2.675,1.34,5.439,2.558,8.246,3.676c-1.626,3.194-3.751,6.182-1.525,9.751
	c3.004,4.816,11.355,6.626,16.309,8.024c8.82,2.487,23.46,5.94,22.497-8.155c-0.016-0.239-0.074-0.461-0.149-0.674
	c1.784,0.137,3.609,0.226,5.449,0.236c-0.654,4.406-2.721,8.649,0.976,12.395C353.193,497.013,365.564,499.192,365.809,500.277z
	 M310.5,474.388c8.01,2.943,16.272,5.065,23.917,6.468c1.58,0.29,3.298,0.566,5.103,0.805c-0.049,0.15-0.092,0.306-0.118,0.481
	c-1.352,9.222-12.036,4.777-18.012,3.138c-2.655-0.728-7.481-1.566-9.483-3.478C309.391,479.396,309.899,477.052,310.5,474.388z
	 M357.924,455.317c3.694,1.416,11.925,3.235,11.022,9.142c-0.734,4.801-7.254,6.732-11.141,7.629
	c-7.272,1.677-15.037,0.591-22.264-0.736c-14.603-2.681-29.809-7.417-42.406-15.45c-7.078-4.514-9.631-9.261-8.138-17.701
	c0.778-4.402,2.379-8.561,3.762-12.781c2.628,2.467,5.991,4.214,9.569,5.6c12.239,4.741,29.569,9.311,43.353,6.874
	C341.06,447.229,349.94,452.257,357.924,455.317z M368.482,383.571c-2.148,7.061-5.168,13.655-8.446,20.252
	c-3.168,6.376-6.198,13.619-11.406,18.647c-11.043,10.66-33.689,4.353-46.374-0.489c-11.445-4.369-8.596-13.895-6.149-23.534
	c0.393-1.547,0.808-3.087,1.223-4.627c9.503-7.834,18.88-15.593,30.144-21.267c7.309-3.682,15.124-6.558,22.752-9.503
	c7.135-2.755,14.639-4.084,21.864-6.41C372.358,365.744,371.121,374.899,368.482,383.571z M368.254,334.455
	c1.828,5.529,2.98,11.259,3.518,17.05c-1.82,0.441-5.428,1.125-5.761,1.219c-2.031,0.573-4.081,1.07-6.103,1.678
	c-3.948,1.185-7.737,2.668-11.522,4.285c-7.985,3.412-16.275,6.664-23.816,10.995c-7.983,4.586-17.555,10.189-25.264,17.05
	c1.199-4.145,2.452-8.275,3.726-12.4c0.253-0.818,0.513-1.662,0.775-2.518c6.416-8.424,12.448-16.997,20.628-24.217
	c11.964-10.56,25.266-16.777,39.42-23.55C365.586,327.408,367.073,330.882,368.254,334.455z M323.044,281.465
	c7.107,5.038,14.502,10.577,20.831,16.58c6.751,6.403,12.926,13.783,17.713,21.9c-14.457,7.051-28.08,13.697-40.243,24.561
	c-4.7,4.198-9.808,9.255-14.258,14.823c1.562-7.884,1.887-16.043-1.588-22.835c-5.453-10.66-18.345-16.701-28.932-20.881
	c-7.269-2.869-14.87-4.262-22.014-7.552c-6.081-2.801-12.072-5.967-17.489-9.924c-5.937-4.336-11.44-9.847-14.495-16.626
	c-3.213-7.13-2.257-14.093-1.909-21.297c4.709,4.38,10.423,7.944,15.523,10.911c18.82,10.947,47.052,25.918,68.448,13.469
	c3.897-2.267,7.467-5.164,10.813-8.393C317.633,278.313,320.558,279.702,323.044,281.465z M318.041,257.495
	c-0.917-5.121-0.938-11.684-5.023-14.835c-3.919-3.022-8.821-0.788-12.576,1.17c-1.621,0.845-5.38,3.69-7.304,3.325
	c-4.071-0.772-3.182-6.348-2.947-8.621c0.277-2.681,0.824-5.949,0.552-8.618c-0.37-3.625-2.417-6.025-6.261-5.958
	c-3.537,0.062-7.65,2.211-10.862,3.458c-1.149,0.446-2.743,1.496-3.947,1.578c-6.075,0.411-5.251-3.49-5.384-7.28
	c-0.179-5.133,0.152-12.565-4.044-16.458c-2.939-2.727-6.849-0.998-10.176,0.258c-2.912,1.1-5.554,2.59-8.18,4.2
	c0.439-0.85,0.886-1.688,1.309-2.563c2.004-4.136,3.839-8.333,5.677-12.522c2.881-1.611,5.677-3.56,8.434-5.025
	c3.256-1.73,7.275-4.478,10.821-2.618c3.968,2.081,1.888,7.65,1.51,11.722c-0.764,8.227,1.849,16.119,11.483,13.402
	c2.308-0.651,5.595-3.07,7.829-2.999c3.612,0.117,9.493,4.001,9.857,7.715c0.133,1.363-0.364,2.962-0.437,4.339
	c-0.184,3.463-0.12,7.58,3.556,9.216c5.194,2.312,10.901-3.045,16.278-1.917c6.929,1.454,7.345,12.259,8.42,17.829
	c0.004,0.021,0.012,0.037,0.017,0.057C323.904,249.939,321.053,253.749,318.041,257.495z M369.362,225.417
	c-16.591-3.52-31.664-11.04-43.885-23.825c-1.635-1.711-4.653,0.527-3.322,2.563c5.13,7.847,11.68,14.05,19.146,18.867
	c-0.701,1.084-1.316,2.259-1.926,3.43c-2.482,4.766-5.16,9.459-8.241,13.875c-1.982-9.121-6.299-18.042-17.47-16.627
	c-0.972,0.123-5.62,2.066-5.959,2.07c-2.993,0.034-4.543-2.374-4.83-4.605c-0.359-2.787,0.677-5.481-0.126-8.33
	c-1.429-5.072-5.345-8.447-10.697-8.632c-3.578-0.124-6.597,1.503-9.878,2.684c-1.298,0.467-3.619,1.648-4.882,1.322
	c-3.258-0.84-3.457-6.062-3.369-8.4c0.183-4.869,2.665-12.902-1.665-16.91c-5.235-4.845-13.811,0.88-20.914,6.16
	c2.612-5.808,5.374-11.546,8.755-17.028c7.563-12.264,17.652-23.349,27.562-33.736c8.747-9.168,18.16-17.749,28.799-24.637
	c1.137-0.374,2.282-0.686,3.422-0.906c13.572-2.617,22.944,9.403,28.952,19.734c6.038,10.381,7.74,23.229,9.242,34.992
	c0.196,1.534,0.136,3.927,0.423,6.157c-4.178-2.191-8.188-4.805-11.787-7.701c-5.288-4.254-8.723-9.857-13.243-14.805
	c-0.492-0.539-1.458,0.179-1.026,0.791c5.158,7.315,7.591,15.308,14.859,21.096c7.806,6.217,17.163,10.919,26.756,13.652
	c4.345,1.238,8.802,2.004,13.282,2.299c2.244,12.079-12.852,8.678-13.446,17.88c-0.263,4.067,4.229,5.443,4.982,8.94
	c0.856,3.98-3.09,5.874-5.716,7.221C372.128,223.539,370.74,224.512,369.362,225.417z M388.95,227.767
	c-0.83-0.031-1.657-0.067-2.477-0.113c-3.569-0.201-7.086-0.571-10.554-1.082c1.914-0.956,3.671-2.005,4.98-2.971
	c3.677-2.716,3.663-6.088,1.694-9.985c-1.768-3.5-4.234-5.961-0.422-9.134c2.114-1.76,5.013-2.381,7.054-4.474
	c2.996-3.074,3.914-6.917,3.096-10.9c3.155-0.054,6.306-0.372,9.424-0.946c1.171,1.936,1.357,4.069,0.533,6.406
	c0.346,2.72-0.558,4.919-2.712,6.596c-1.907,1.955-5.5,3.451-6.462,6.182c-0.758,2.154,0.458,3.246,1.053,5.207
	C396.492,220.252,394.329,224.297,388.95,227.767z M420.298,220.831c-6.903,4.773-15.199,6.522-23.512,6.915
	c1.738-1.825,3.134-3.879,3.86-5.831c1.961-5.27-2.837-8.648-2.113-12.917c0.43-2.54,4.021-4.154,5.608-6.153
	c1.548-1.949,2.815-4.258,3.139-6.757c0.49-3.771-0.832-6.288-2.838-8.504c4.28-1.007,8.4-2.428,12.61-3.719
	c8.367-2.567,10.921,2.126,13.653,8.993C435.069,203.831,429.745,214.299,420.298,220.831z M462.842,199.811
	c-3.054,3.816-7.288,5.737-11.667,7.61c-3.208,1.372-5.791,2.626-9.378,2.081c-0.623-0.095-1.104-0.192-1.529-0.283
	c0.109-0.321,0.228-0.632,0.33-0.959c3.036-9.777-0.061-20.37-5.707-28.689c-0.938-1.383-1.948-2.488-3.005-3.399
	c0.308-1.745,0.487-3.511,1.111-5.179c2.224-5.948,4.004-5.619,8.943-2.002c2.054,1.504,2.865,3.398,5.907,2.844
	c2.784-0.506,4.471-3.302,6.783-4.691c3.463-2.081,7.577-2.397,8.69,2.52c0.514,2.272-0.947,4.763-1.152,6.986
	c-0.359,3.89,1.21,4.053,2.625,7.245C466.834,188.499,465.81,196.101,462.842,199.811z"/>
<path d="M408.659,70.706c3.256,0.204,5.839-2.746,5.841-5.889c0-0.174-0.018-0.342-0.034-0.51c0.035-1.005-0.2-2.021-0.75-2.905
	c-1.811-2.911-5.52-2.968-8.148-1.194c-2.36,1.592-4.866,4.194-3.124,7.195C403.65,69.479,406.356,70.562,408.659,70.706z"/>
<g>
</g>
<g>
</g>
<g>
</g>
<g>
</g>
<g>
</g>
<g>
</g>
<g>
</g>
<g>
</g>
<g>
</g>
<g>
</g>
<g>
</g>
<g>
</g>
<g>
</g>
<g>
</g>
<g>
</g>
</svg>
