<svg height="30" viewBox="0 0 58 58" width="30" xmlns="http://www.w3.org/2000/svg"><g id="029---Spa" fill="none"><path id="Shape" d="m34.06 57.48h-.01c-2.5013114.3506211-5.0242378.5243855-7.55.52-14.64 0-26.5-5.6-26.5-12.5 0-5.18 6.67-9.62 16.18-11.52l24.32.91c5.1 1.5 9.04 3.79 11.03 6.51l-6.863 14.193z" fill="#2c3e50"/><path id="Shape" d="m16.8 17.83c-5.89 1.8-9.74 4.79-9.74 8.17 0 3.26 3.58 6.16 9.12 7.98 4.4732298 1.3895074 9.136208 2.0710715 13.82 2.02 3.5300923.0157182 7.0512234-.3565156 10.5-1.11 7.39-1.66 12.44-5.02 12.44-8.89 0-3.85-5.01-7.2-12.34-8.86z" fill="#35495e"/><ellipse id="Oval" cx="28" cy="10" fill="#3f5c6c" rx="18" ry="10"/><path id="Shape" d="m41.02 56.54c-.02.83-.08 1.34-.08 1.34s-.5.06-1.33.08c-2.59.09-8.37-.16-11.9-3.68-4.65-4.63-3.61-13.18-3.61-13.18s8.58-1.04 13.23 3.59c3.53 3.51 3.78 9.26 3.69 11.85z" fill="#26b99a"/><path id="Shape" d="m36.616 52.155.5-2.47c.071292-.3507459-.0503088-.712849-.3188502-.9494727-.2685414-.2366238-.6430699-.3116823-.9820536-.1968114s-.5907264.4021529-.6600962.7532841l-.235 1.17-1.308-1.3.5-2.47c.0817387-.3546767-.0356856-.7257563-.3065811-.9688456-.2708956-.2430893-.6524775-.319795-.996266-.2002698s-.595486.4164038-.6571529.7751154l-.236 1.171-2.896-2.879c-.3930079-.3899779-1.0269921-.3899779-1.42 0-.3877236.3900375-.3877236 1.0199625 0 1.41l2.886 2.874-1.168.232c-.5417913.1079717-.8934717.6347087-.7855 1.1765s.6347087.8934717 1.1765.7855l2.484-.494 1.3 1.3-1.169.233c-.5034786.1022344-.8475737.5693469-.7959422 1.0804992.0516316.5111523.4821891.9000171.9959422.8995008.0671307.0002896.1341248-.0060748.2-.019l2.476-.498 4.409 4.39c.83-.02 1.33-.08 1.33-.08s.06-.51.08-1.34z" fill="#14a085"/><path id="Shape" d="m54.29 54.28c-3.53 3.52-9.31 3.77-11.9 3.68-.83-.02-1.33-.08-1.33-.08s-.06-.51-.08-1.34c-.09-2.59.16-8.34 3.69-11.85 4.65-4.63 13.23-3.59 13.23-3.59s1.04 8.55-3.61 13.18z" fill="#14a085"/><path id="Shape" d="m54.4 44.59c-.1877666-.1893127-.4433625-.2957983-.71-.2957983s-.5222334.1064856-.71.2957983l-2.89 2.87-.234-1.16c-.0616669-.3587116-.3133644-.6555902-.6571529-.7751154s-.7253704-.0428195-.996266.2002698c-.2708955.2430893-.3883198.6141689-.3065811.9688456l.5 2.469-1.3 1.3-.006.005-.235-1.173c-.0693698-.3511312-.3211125-.6384132-.6600962-.7532841s-.7135122-.0398124-.9820536.1968114c-.2685414.2366237-.3901422.5987268-.3188502.9494727l.5 2.471-4.4 4.38c.02.83.08 1.34.08 1.34s.5.06 1.33.08l4.41-4.39 2.483.494c.0658827.0128736.1328717.0192375.2.019.5137531.0005163.9443106-.3883485.9959422-.8995008.0516315-.5111523-.2924636-.9782648-.7959422-1.0804992l-1.165-.232 1.3-1.29 2.476.493c.5417913.1079717 1.0685283-.2437087 1.1765-.7855s-.2437087-1.0685283-.7855-1.1765l-1.166-.232 2.867-2.879c.3877236-.3900375.3877236-1.0199625 0-1.41z" fill="#33907c"/><ellipse id="Oval" cx="20.222" cy="7.37" fill="#547580" rx="5.926" ry="3.778"/><ellipse id="Oval" cx="16.815" cy="24.778" fill="#3f5c6c" rx="5.926" ry="3.778"/><ellipse id="Oval" cx="9.259" cy="43.296" fill="#35495e" rx="5.926" ry="3.778"/></g></svg>